{"accessors":[{"bufferView":0,"byteOffset":0,"componentType":5126,"count":2,"max":[1.5,0.0,0.0],"min":[0.0,0.0,0.0],"type":"VEC3"},{"bufferView":1,"byteOffset":0,"componentType":5126,"count":2,"max":[1.5,0.75,0.0],"min":[1.5,0.0,0.0],"type":"VEC3"}],"asset":{"extras":{"openpipestress":{"artifact_role":"visual_review_geometry_only","coordinate_basis":"gltf_y_up_right_handed_meters","linear_unit":"m","professional_boundary":"not_solver_geometry_not_analysis_fidelity_not_professional_reliance","profile_id":"ops.review_geometry.gltf_lines"}},"generator":"OpenPipeStress DEL-17-08 review geometry exporter 0.1.0","version":"2.0"},"bufferViews":[{"buffer":0,"byteLength":24,"byteOffset":0,"target":34962},{"buffer":0,"byteLength":24,"byteOffset":24,"target":34962}],"buffers":[{"byteLength":48,"uri":"data:application/octet-stream;base64,"}],"meshes":[{"name":"ops_segment_AB","primitives":[{"attributes":{"POSITION":0},"extras":{"openpipestress":{"canonical_ref":{"object_type":"CenterlineElement","ref":"element:invented:AB"},"metadata_role":"centerline_segment_primitive","review_boundary":"visual_review_only","sidecar_authoritative":true,"target_ref":{"object_type":"GltfPrimitive","ref":"mesh:0:primitive:0"}}},"mode":1}]},{"name":"ops_segment_BC","primitives":[{"attributes":{"POSITION":1},"extras":{"openpipestress":{"canonical_ref":{"object_type":"CenterlineElement","ref":"element:invented:BC"},"metadata_role":"centerline_segment_primitive","review_boundary":"visual_review_only","sidecar_authoritative":true,"target_ref":{"object_type":"GltfPrimitive","ref":"mesh:1:primitive:0"}}},"mode":1}]}],"nodes":[{"extras":{"openpipestress":{"canonical_ref":{"object_type":"CenterlineElement","ref":"element:invented:AB"},"metadata_role":"centerline_segment_node","review_boundary":"visual_review_only","sidecar_authoritative":true,"target_ref":{"object_type":"GltfNode","ref":"0"}}},"mesh":0,"name":"ops_segment_AB"},{"extras":{"openpipestress":{"canonical_ref":{"object_type":"CenterlineElement","ref":"element:invented:BC"},"metadata_role":"centerline_segment_node","review_boundary":"visual_review_only","sidecar_authoritative":true,"target_ref":{"object_type":"GltfNode","ref":"1"}}},"mesh":1,"name":"ops_segment_BC"}],"scene":0,"scenes":[{"name":"OpenPipeStress review geometry","nodes":[0,1]}]}
